<?xml version="1.0" encoding="iso-8859-1"?>
<!-- Generator: Adobe Illustrator 19.0.0, SVG Export Plug-In . SVG Version: 6.00 Build 0)  -->
<svg version="1.1" id="Capa_1" xmlns="http://www.w3.org/2000/svg" xmlns:xlink="http://www.w3.org/1999/xlink" x="0px" y="0px"
	 viewBox="0 0 511.999 511.999" style="enable-background:new 0 0 511.999 511.999;" xml:space="preserve" fill="#E4BC00">
<g>
	<g>
		<path d="M504.499,199.857c4.143,0,7.5-3.358,7.5-7.5V62.31c0.001-15.074-12.263-27.338-27.337-27.338H27.338
			C12.264,34.972,0,47.236,0,62.31v398.15c0,9.135,7.432,16.567,16.567,16.567h478.865c9.136,0,16.567-7.432,16.567-16.567V222.973
			c0-4.142-3.357-7.5-7.5-7.5c-4.143,0-7.5,3.358-7.5,7.5V460.46c0,0.864-0.703,1.567-1.567,1.567H16.567
			c-0.864,0-1.567-0.703-1.567-1.567V124.861c109.841-0.36,220.655-0.355,329.507,0.022c0.01,0,0.018,0,0.027,0
			c4.129,0,7.484-3.341,7.499-7.474c0.015-4.142-3.332-7.511-7.474-7.526C235.69,109.506,124.858,109.501,15,109.861V62.31
			c0-6.803,5.535-12.338,12.338-12.338h457.323c6.803,0,12.338,5.535,12.338,12.338v47.513c-40.118-0.323-79.32-0.306-119.557,0.061
			c-4.142,0.038-7.469,3.426-7.432,7.568c0.038,4.119,3.389,7.432,7.499,7.432c0.022,0,0.046,0,0.069,0
			c40.191-0.365,79.346-0.382,119.42-0.059v67.532C496.999,196.499,500.356,199.857,504.499,199.857z"/>
	</g>
</g>
<g>
	<g>
		<path d="M341.693,73.812H74.159c-4.143,0-7.5,3.358-7.5,7.5c0,4.142,3.357,7.5,7.5,7.5h267.534c4.143,0,7.5-3.358,7.5-7.5
			C349.193,77.17,345.836,73.812,341.693,73.812z"/>
	</g>
</g>
<g>
	<g>
		<path d="M377.964,71.775c-4.143,0-7.5,3.358-7.5,7.5v1.303c0,4.142,3.357,7.5,7.5,7.5c4.143,0,7.5-3.358,7.5-7.5v-1.303
			C385.465,75.133,382.107,71.775,377.964,71.775z"/>
	</g>
</g>
<g>
	<g>
		<path d="M407.902,71.775c-4.143,0-7.5,3.358-7.5,7.5v1.303c0,4.142,3.357,7.5,7.5,7.5c4.143,0,7.5-3.358,7.5-7.5v-1.303
			C415.402,75.133,412.045,71.775,407.902,71.775z"/>
	</g>
</g>
<g>
	<g>
		<path d="M437.841,71.775c-4.143,0-7.5,3.358-7.5,7.5v1.303c0,4.142,3.357,7.5,7.5,7.5c4.143,0,7.5-3.358,7.5-7.5v-1.303
			C445.341,75.133,441.984,71.775,437.841,71.775z"/>
	</g>
</g>
<g>
	<g>
		<path d="M209.873,208.762H107.602c-18.716,0-33.941,15.226-33.941,33.942v32.318c0,4.142,3.357,7.5,7.5,7.5
			c4.143,0,7.5-3.358,7.5-7.5v-32.318c0-10.445,8.497-18.942,18.941-18.942h102.271c10.444,0,18.941,8.497,18.941,18.942v102.27
			c0,10.444-8.497,18.941-18.941,18.941H107.602c-10.444,0-18.941-8.497-18.941-18.941v-39.333c0-4.142-3.357-7.5-7.5-7.5
			c-4.143,0-7.5,3.358-7.5,7.5v39.333c0,18.715,15.226,33.941,33.941,33.941h102.271c18.716,0,33.941-15.226,33.941-33.941v-102.27
			C243.815,223.988,228.589,208.762,209.873,208.762z"/>
	</g>
</g>
<g>
	<g>
		<path d="M182.688,280.288l-34.447-17.099c-4.723-2.345-10.217-2.085-14.699,0.693c-4.48,2.779-7.156,7.585-7.156,12.858v34.198
			c0,5.272,2.676,10.079,7.156,12.858c2.449,1.519,5.2,2.285,7.964,2.285c2.293,0,4.594-0.527,6.736-1.591l34.446-17.099
			c5.183-2.572,8.402-7.765,8.402-13.551C191.09,288.054,187.87,282.861,182.688,280.288z M176.019,293.954l-34.5,17.122
			c-0.036-0.002-0.111-0.049-0.133-0.139V276.74l0.003-0.059c0.016-0.026,0.069-0.063,0.139-0.063c0.015,0,0.029,0.001,0.045,0.005
			l34.503,17.123C176.097,293.787,176.097,293.891,176.019,293.954z"/>
	</g>
</g>
<g>
	<g>
		<path d="M337.645,223.007h-40.552c-4.143,0-7.5,3.358-7.5,7.5c0,4.142,3.357,7.5,7.5,7.5h40.552c4.143,0,7.5-3.358,7.5-7.5
			C345.145,226.365,341.788,223.007,337.645,223.007z"/>
	</g>
</g>
<g>
	<g>
		<path d="M416.354,275.052H297.092c-4.143,0-7.5,3.358-7.5,7.5c0,4.142,3.357,7.5,7.5,7.5h119.261c4.143,0,7.5-3.358,7.5-7.5
			C423.854,278.41,420.496,275.052,416.354,275.052z"/>
	</g>
</g>
<g>
	<g>
		<path d="M416.354,312.361H297.092c-4.143,0-7.5,3.358-7.5,7.5c0,4.142,3.357,7.5,7.5,7.5h119.261c4.143,0,7.5-3.358,7.5-7.5
			C423.854,315.719,420.496,312.361,416.354,312.361z"/>
	</g>
</g>
<g>
	<g>
		<path d="M416.354,349.671H297.092c-4.143,0-7.5,3.358-7.5,7.5s3.357,7.5,7.5,7.5h119.261c4.143,0,7.5-3.358,7.5-7.5
			S420.496,349.671,416.354,349.671z"/>
	</g>
</g>
<g>
</g>
<g>
</g>
<g>
</g>
<g>
</g>
<g>
</g>
<g>
</g>
<g>
</g>
<g>
</g>
<g>
</g>
<g>
</g>
<g>
</g>
<g>
</g>
<g>
</g>
<g>
</g>
<g>
</g>
</svg>
