<?xml version="1.0" encoding="iso-8859-1"?>
<!-- Generator: Adobe Illustrator 19.0.0, SVG Export Plug-In . SVG Version: 6.00 Build 0)  -->
<svg version="1.1" id="Capa_1" xmlns="http://www.w3.org/2000/svg" xmlns:xlink="http://www.w3.org/1999/xlink" x="0px" y="0px"
	 viewBox="0 0 511.998 511.998" style="enable-background:new 0 0 511.998 511.998;" xml:space="preserve" fill="#E4BC00">
<g>
	<g>
		<path d="M450.319,43.122c-37.493-14.286-87.186-22.154-139.923-22.154s-102.429,7.868-139.922,22.154
			c-39.776,15.156-61.682,36.218-61.682,59.308c0,0,0.02,236.15,0.052,236.432c-4.409,9.112-7.96,18.645-10.56,28.469
			c-5.907-1.217-11.951-1.777-18.05-1.666c-10.728,0.192-21.146,2.463-30.967,6.747c-3.797,1.656-5.531,6.076-3.875,9.873
			c1.656,3.796,6.073,5.53,9.873,3.875c8.002-3.491,16.493-5.341,25.238-5.497c7.198-0.134,14.287,0.877,21.077,2.989
			c2.018,0.627,4.202,0.376,6.021-0.69c1.82-1.067,3.106-2.852,3.544-4.916c14.037-66.26,73.46-114.351,141.294-114.351
			c78.426,0,143.208,63.783,144.411,142.183c0.035,2.304,1.128,4.464,2.963,5.857c1.836,1.395,4.211,1.866,6.438,1.282
			c4.506-1.183,9.165-1.619,13.863-1.294c19.375,1.331,37.853,19.441,39.539,38.739l0.048,0.606
			c0.48,6.488-1.701,12.696-6.145,17.481c-4.479,4.823-10.57,7.479-17.152,7.479h-47.429c-4.143,0-7.5,3.357-7.5,7.5
			c0,4.143,3.357,7.5,7.5,7.5h47.429c10.644,0,20.901-4.474,28.144-12.272c7.208-7.762,10.894-18.258,10.113-28.784l-0.063-0.8
			c-1.135-12.981-7.36-25.62-17.53-35.586c-1.917-1.878-3.926-3.614-6.012-5.201c39.434-15.121,60.941-35.801,60.941-59.028V102.429
			C512,79.34,490.095,58.278,450.319,43.122z M123.794,313.993v-47.615c6.807,6.739,15.887,13.039,27.144,18.805
			C140.683,293.662,131.575,303.361,123.794,313.993z M364.355,294.578c-30.015-29.588-69.761-45.884-111.913-45.884
			c-31.296,0-61.947,9.293-87.879,26.41c-25.965-11.841-40.769-26.518-40.769-40.597V134.136
			c10.454,10.413,26.188,19.792,46.682,27.601c37.492,14.286,87.185,22.154,139.922,22.154c31.442,0,61.52-2.743,89.394-8.153
			c4.066-0.789,6.723-4.725,5.934-8.791s-4.722-6.727-8.791-5.934c-26.936,5.228-56.051,7.878-86.536,7.878
			c-50.957,0-98.751-7.519-134.581-21.171c-33.061-12.598-52.022-29.105-52.022-45.291c0-16.185,18.961-32.692,52.022-45.291
			c35.829-13.652,83.624-21.171,134.581-21.171c50.957,0,98.752,7.519,134.582,21.171c33.061,12.598,52.022,29.105,52.022,45.291
			c0,19.226-26.22,38.425-70.14,51.359c-3.973,1.17-6.245,5.34-5.075,9.313c1.17,3.972,5.339,6.246,9.313,5.075
			c29.866-8.795,52.315-20.571,65.901-34.117v100.447c0,13.126-12.614,26.657-35.52,38.102
			c-23.568,11.774-56.86,20.634-94.075,25.065C366.402,296.632,365.389,295.597,364.355,294.578z M497.001,349.357
			c-0.001,18.194-24.016,36.701-64.267,49.56c-3.798-1.156-7.681-1.892-11.587-2.16c-3.238-0.223-6.468-0.178-9.666,0.135
			c-2.175-31.34-13.41-60.91-32.374-85.618c35.205-4.97,65.797-13.614,89.079-25.246c12.028-6.01,21.667-12.636,28.815-19.734
			V349.357z"/>
	</g>
</g>
<g>
	<g>
		<path d="M358.361,476.03H38.67c-11.753,0-21.705-8.725-23.15-20.295c-0.369-2.951-0.543-5.974-0.516-8.98
			c0.15-16.387,6.387-32.133,17.562-44.338c2.798-3.055,2.589-7.799-0.467-10.596c-3.055-2.798-7.798-2.59-10.596,0.467
			c-13.68,14.938-21.314,34.233-21.499,54.331c-0.032,3.673,0.18,7.366,0.631,10.977c2.381,19.061,18.732,33.435,38.035,33.435
			h319.692c4.143,0,7.5-3.357,7.5-7.5C365.861,479.388,362.503,476.03,358.361,476.03z"/>
	</g>
</g>
<g>
	<g>
		<path d="M231.796,331.956c-4.143,0-7.5,3.357-7.5,7.5v57.085l-21.782-21.783c-2.93-2.928-7.678-2.928-10.607,0
			c-2.929,2.93-2.929,7.678,0,10.607l34.586,34.586c1.435,1.434,3.353,2.196,5.305,2.196c0.966,0,1.94-0.187,2.868-0.571
			c2.803-1.16,4.63-3.896,4.63-6.929v-75.191C239.296,335.313,235.939,331.956,231.796,331.956z"/>
	</g>
</g>
<g>
	<g>
		<path d="M304.638,368.738l-34.587-34.586c-2.145-2.145-5.371-2.788-8.173-1.625c-2.803,1.16-4.63,3.896-4.63,6.929v75.191
			c0,4.143,3.357,7.5,7.5,7.5s7.501-3.358,7.501-7.5v-57.085l21.783,21.783c2.93,2.928,7.678,2.928,10.607,0
			C307.568,376.416,307.568,371.667,304.638,368.738z"/>
	</g>
</g>
<g>
</g>
<g>
</g>
<g>
</g>
<g>
</g>
<g>
</g>
<g>
</g>
<g>
</g>
<g>
</g>
<g>
</g>
<g>
</g>
<g>
</g>
<g>
</g>
<g>
</g>
<g>
</g>
<g>
</g>
</svg>
