<?xml version="1.0" encoding="iso-8859-1"?>
<!-- Generator: Adobe Illustrator 19.0.0, SVG Export Plug-In . SVG Version: 6.00 Build 0)  -->
<svg version="1.1" id="Capa_1" xmlns="http://www.w3.org/2000/svg" xmlns:xlink="http://www.w3.org/1999/xlink" x="0px" y="0px"
	 viewBox="0 0 512 512" style="enable-background:new 0 0 512 512;" xml:space="preserve" fill="#E4BC00">
<g>
	<g>
		<path d="M467.679,24.755h-55.37c-4.142,0-7.5,3.357-7.5,7.5c0,4.143,3.358,7.5,7.5,7.5h55.37
			c16.168,0,29.321,13.154,29.321,29.322v18.281h-54.718c-4.142,0-7.5,3.357-7.5,7.5v229.025H296.298v-75.727
			c0-6.825-1.687-13.391-4.904-19.273c10.23-9.509,16.646-23.068,16.646-38.103c0-3.698-0.78-7.877-2.168-12.388
			c-0.059-0.246-0.131-0.492-0.217-0.736c-0.032-0.091-0.073-0.176-0.108-0.265c-6.252-19.308-23.189-44.364-37.885-63.823
			c-2.787-3.689-7.037-5.806-11.661-5.806s-8.875,2.116-11.661,5.806c-18.42,24.389-40.379,57.581-40.379,77.212
			c0,15.039,6.419,28.601,16.653,38.11c-3.214,5.891-4.913,12.482-4.913,19.266v75.727H15V205.918
			c15.967,13.766,25.776,33.74,26.617,55.045c-8.897,3.129-15.295,11.611-15.295,21.565c0,12.603,10.253,22.855,22.855,22.855
			s22.855-10.253,22.855-22.855c0-9.993-6.449-18.502-15.401-21.601c-0.989-29.645-16.505-57.192-41.26-73.481h64.811
			c3.111,8.929,11.609,15.355,21.585,15.355c12.603,0,22.855-10.253,22.855-22.855s-10.253-22.855-22.855-22.855
			c-9.975,0-18.473,6.427-21.585,15.355H15V69.076c0-16.168,13.153-29.322,29.321-29.322h337.37c4.142,0,7.5-3.357,7.5-7.5
			c0-4.143-3.358-7.5-7.5-7.5H44.321C19.882,24.755,0,44.638,0,69.076v314.871c0,13.119,10.673,23.792,23.792,23.792h61.232
			c4.142,0,7.5-3.357,7.5-7.5s-3.358-7.5-7.5-7.5H23.792c-4.848,0-8.792-3.944-8.792-8.792v-45.064h482v45.064
			c0,4.848-3.944,8.792-8.792,8.792h-34.565c-4.142,0-7.5,3.357-7.5,7.5s3.358,7.5,7.5,7.5h34.565
			c13.119,0,23.792-10.673,23.792-23.792V69.076C512,44.638,492.118,24.755,467.679,24.755z M49.177,274.674
			c4.331,0,7.855,3.524,7.855,7.855c0,4.331-3.524,7.855-7.855,7.855c-4.332,0-7.855-3.524-7.855-7.855
			C41.322,278.198,44.846,274.674,49.177,274.674z M101.768,172.091c4.332,0,7.855,3.524,7.855,7.855s-3.524,7.855-7.855,7.855
			s-7.855-3.524-7.855-7.855S97.437,172.091,101.768,172.091z M256.001,123.018c15.42,20.459,26.883,38.913,32.716,52.291
			c-28.015,7.33-48.503-1.729-60.431-10.191C234.705,153.178,244.191,138.688,256.001,123.018z M281.298,323.878h-50.597v-75.722
			c0-3.725,0.809-7.358,2.358-10.681c6.926,3.417,14.712,5.345,22.942,5.345c8.224,0,16.004-1.925,22.926-5.337
			c1.549,3.315,2.371,6.928,2.371,10.673V323.878z M256.001,227.82c-20.424,0-37.04-16.616-37.04-37.04
			c0-3.025,0.991-7.059,2.854-11.9c10.745,7.157,26.432,14.195,46.569,14.195c7.582,0,15.799-1.005,24.617-3.371
			c0.025,0.371,0.04,0.731,0.04,1.076C293.041,211.204,276.425,227.82,256.001,227.82z M497,323.881h-47.218v-4.554h13.402
			c4.142,0,7.5-3.357,7.5-7.5s-3.358-7.5-7.5-7.5h-13.402V293.35h13.402c4.142,0,7.5-3.357,7.5-7.5s-3.358-7.5-7.5-7.5h-13.402
			v-10.978h13.402c4.142,0,7.5-3.357,7.5-7.5s-3.358-7.5-7.5-7.5h-13.402v-10.977h23.606c4.142,0,7.5-3.357,7.5-7.5
			s-3.358-7.5-7.5-7.5h-23.606v-10.978h13.402c4.142,0,7.5-3.357,7.5-7.5s-3.358-7.5-7.5-7.5h-13.402V189.44h13.402
			c4.142,0,7.5-3.357,7.5-7.5s-3.358-7.5-7.5-7.5h-13.402v-10.977h13.402c4.142,0,7.5-3.357,7.5-7.5s-3.358-7.5-7.5-7.5h-13.402
			v-10.978h23.606c4.142,0,7.5-3.357,7.5-7.5s-3.358-7.5-7.5-7.5h-23.606v-20.129H497V323.881z"/>
	</g>
</g>
<g>
	<g>
		<path d="M423.024,392.74H115.642c-4.142,0-7.5,3.357-7.5,7.5s3.358,7.5,7.5,7.5h72.663c-4.907,16.644-14.72,37.088-34.353,51.987
			c-5.323,4.039-7.385,10.743-5.253,17.078c2.134,6.343,7.836,10.441,14.527,10.441h185.547c6.69,0,12.393-4.099,14.527-10.441
			c2.132-6.335,0.07-13.039-5.253-17.078c-19.657-14.917-29.464-35.406-34.355-51.987h99.332c4.142,0,7.5-3.357,7.5-7.5
			S427.167,392.74,423.024,392.74z M348.98,471.676c0.097,0.073,0.13,0.119,0.132,0.119c0.03,0.108-0.061,0.37-0.146,0.43
			c0,0-0.053,0.021-0.192,0.021H163.227c-0.132,0-0.186-0.019-0.188-0.019c-0.09-0.063-0.181-0.326-0.154-0.424
			c0-0.001,0.03-0.048,0.136-0.128c24.521-18.61,35.731-44.313,40.853-63.937h104.254
			C313.226,427.268,324.419,453.037,348.98,471.676z"/>
	</g>
</g>
<g>
	<g>
		<path d="M217.365,64.175c-4.142,0-7.5,3.357-7.5,7.5v1.681c0,4.143,3.358,7.5,7.5,7.5c4.142,0,7.5-3.357,7.5-7.5v-1.681
			C224.865,67.532,221.507,64.175,217.365,64.175z"/>
	</g>
</g>
<g>
	<g>
		<path d="M256,64.175c-4.142,0-7.5,3.357-7.5,7.5v1.681c0,4.143,3.358,7.5,7.5,7.5c4.142,0,7.5-3.357,7.5-7.5v-1.681
			C263.5,67.532,260.142,64.175,256,64.175z"/>
	</g>
</g>
<g>
	<g>
		<path d="M294.635,64.175c-4.142,0-7.5,3.357-7.5,7.5v1.681c0,4.143,3.358,7.5,7.5,7.5c4.142,0,7.5-3.357,7.5-7.5v-1.681
			C302.135,67.532,298.777,64.175,294.635,64.175z"/>
	</g>
</g>
<g>
	<g>
		<path d="M256,347.138c-10.296,0-18.673,8.377-18.673,18.674c0,10.296,8.377,18.673,18.673,18.673s18.673-8.378,18.673-18.673
			C274.673,355.516,266.296,347.138,256,347.138z M256,369.485c-2.025,0-3.673-1.648-3.673-3.673c0-2.025,1.648-3.674,3.673-3.674
			s3.673,1.648,3.673,3.674S258.025,369.485,256,369.485z"/>
	</g>
</g>
<g>
</g>
<g>
</g>
<g>
</g>
<g>
</g>
<g>
</g>
<g>
</g>
<g>
</g>
<g>
</g>
<g>
</g>
<g>
</g>
<g>
</g>
<g>
</g>
<g>
</g>
<g>
</g>
<g>
</g>
</svg>
